<?xml version="1.0" encoding="UTF-8" standalone="no"?>
<svg width="44px" height="44px" viewBox="0 0 44 44" xmlns="http://www.w3.org/2000/svg" xmlns:xlink="http://www.w3.org/1999/xlink">
  <path d="M21.778565,12.0039794 C21.2901823,12.0039794 20.3130178,12.072766 19.2633884,12.5347161 C18.663258,12.7986633 18.1234486,13.1555576 17.6590118,13.5955074 C17.105291,14.1197066 16.6541955,14.7660161 16.3184965,15.5167562 C15.826864,16.615977 15.9435719,18.4674727 16.037303,19.9553661 C16.0476796,20.1170429 16.0582272,20.2834382 16.0678626,20.4455699 C15.9957398,20.4785988 15.8788039,20.5134469 15.7064503,20.5134469 C15.4291337,20.5134469 15.0993642,20.4250476 14.7265491,20.2508641 C14.616854,20.1999279 14.491651,20.1741756 14.3535059,20.1741756 C14.13155,20.1741756 13.8975642,20.2393239 13.694594,20.3583076 C13.4392279,20.5078189 13.2742291,20.7191244 13.2294161,20.9533967 C13.1998828,21.1083655 13.2013081,21.4146647 13.5425374,21.7252844 C13.7302278,21.8962844 14.005948,22.0539819 14.3618299,22.1942269 C14.455219,22.2308941 14.5660544,22.2659127 14.6834464,22.3030347 C15.0908121,22.4321375 15.7073625,22.6271844 15.8681422,23.0044872 C15.9496154,23.1957821 15.9145517,23.4475069 15.7642055,23.7517595 C15.7151734,23.8642057 15.3646508,24.6558766 14.6456461,25.4908092 C14.2370831,25.9656071 13.7870709,26.3624089 13.3088367,26.6705273 C12.7251264,27.0466932 12.0935243,27.2926194 11.4317618,27.4013136 C11.1718915,27.4438362 10.9863107,27.6746976 11.0007923,27.937053 C11.0052394,28.0126613 11.0230278,28.0880423 11.0538724,28.1609788 C11.1596905,28.4073598 11.4033117,28.6155387 11.7993886,28.7991591 C12.2833812,29.0233123 13.0072321,29.2118785 13.9506443,29.3594001 C13.9983081,29.4497891 14.0477963,29.6769553 14.0820618,29.8324926 C14.1179237,29.9978077 14.1553249,30.1677845 14.2086331,30.348335 C14.2661603,30.5439504 14.4153662,30.777711 14.7986719,30.777711 C14.9439438,30.777711 15.1109951,30.74508 15.3044439,30.7076738 C15.5877469,30.6522466 15.9751577,30.5766382 16.4586942,30.5766382 C16.7267744,30.5766382 17.0046041,30.6001734 17.2842582,30.6465049 C17.8233264,30.7359843 18.2880483,31.0633174 18.8257482,31.4423826 C19.6127707,31.9971093 20.5036159,32.625 21.8647133,32.625 C21.9018294,32.625 21.9390596,32.6238062 21.9758337,32.621248 C22.0208179,32.6233514 22.0765776,32.625 22.1354162,32.625 C23.4969127,32.625 24.3875298,31.996882 25.1736971,31.44261 C25.7127653,31.0628626 26.176974,30.7359843 26.7158712,30.6465049 C26.9954113,30.6002303 27.273184,30.5766382 27.5413783,30.5766382 C28.0033064,30.5766382 28.3690518,30.6353626 28.6956285,30.6988623 C28.9087472,30.7407027 29.0743731,30.760827 29.2014575,30.760827 C29.5071101,30.7610544 29.713102,30.6076206 29.7917244,30.3391256 C29.8439493,30.1623839 29.8812366,29.9963865 29.9180106,29.8282858 C29.9500526,29.6825265 30.0012512,29.4488795 30.048915,29.3575241 C30.9929543,29.2097183 31.7165201,29.02155 32.2005698,28.7974536 C32.5957344,28.614686 32.8390706,28.4067345 32.9447747,28.1626843 C32.9764745,28.0895204 32.9950041,28.0136846 32.9991661,27.9364845 C33.0140468,27.6745839 32.8281809,27.4432677 32.5681396,27.4007451 C29.6270677,26.9174199 28.3021173,23.904227 28.2473267,23.7762044 C28.0852927,23.4469384 28.0505711,23.1954979 28.1321013,23.0038619 C28.2925389,22.6269001 28.9086902,22.4318532 29.3163409,22.3028073 C29.4343601,22.2657422 29.5455946,22.2304962 29.6382425,22.1939995 C30.0395647,22.0359609 30.3264026,21.8645061 30.5156323,21.6698003 C30.7416362,21.4376883 30.7856511,21.2152973 30.7829144,21.0697654 C30.7760157,20.7176464 30.506054,20.4047527 30.0766238,20.2515463 C29.93158,20.1917418 29.7661821,20.1601909 29.5977625,20.1601909 C29.4831072,20.1601909 29.3133192,20.175881 29.1525965,20.2506936 C28.8085164,20.4112335 28.5002983,20.4990074 28.2356959,20.511514 C28.0949851,20.504408 27.9962937,20.4739941 27.9323809,20.4449446 C27.9404199,20.3075988 27.9493141,20.1665011 27.9584933,20.0193774 L27.9623133,19.9563893 C28.0565576,18.4675296 28.1736645,16.6146126 27.681804,15.5145959 C27.3446796,14.761184 26.8919878,14.1132258 26.3360434,13.5878897 C25.8697821,13.1476556 25.3281483,12.7908182 24.7258514,12.5270416 C23.6777044,12.0685023 22.7005969,12 22.21153,12 C22.021274,12.0015918 21.7985769,12.003752 21.778565,12.0039794 Z" fill="#FFFFFF"></path>
</svg>
