<?xml version="1.0" encoding="UTF-8" standalone="no"?>
<!-- Created with Inkscape (http://www.inkscape.org/) -->

<svg
   xmlns:dc="http://purl.org/dc/elements/1.1/"
   xmlns:cc="http://creativecommons.org/ns#"
   xmlns:rdf="http://www.w3.org/1999/02/22-rdf-syntax-ns#"
   xmlns:svg="http://www.w3.org/2000/svg"
   xmlns="http://www.w3.org/2000/svg"
   xmlns:xlink="http://www.w3.org/1999/xlink"
   xmlns:sodipodi="http://sodipodi.sourceforge.net/DTD/sodipodi-0.dtd"
   xmlns:inkscape="http://www.inkscape.org/namespaces/inkscape"
   inkscape:version="0.92.2 5c3e80d, 2017-08-06"
   version="1.1"
   id="svg2"
   viewBox="0 0 744.09448819 1052.3622047"
   height="297mm"
   width="210mm"
   sodipodi:docname="gunnlogo_nomesh.svg">
  <sodipodi:namedview
     inkscape:window-maximized="1"
     inkscape:window-y="1"
     inkscape:window-x="0"
     inkscape:window-height="991"
     inkscape:window-width="1920"
     inkscape:guide-bbox="true"
     showguides="true"
     inkscape:object-nodes="true"
     inkscape:object-paths="true"
     inkscape:snap-intersection-paths="true"
     inkscape:snap-smooth-nodes="true"
     inkscape:snap-midpoints="true"
     showgrid="false"
     inkscape:current-layer="layer1"
     inkscape:document-units="px"
     inkscape:cy="658.84984"
     inkscape:cx="117.29206"
     inkscape:zoom="0.70710678"
     inkscape:pageshadow="2"
     inkscape:pageopacity="0.0"
     borderopacity="1.0"
     bordercolor="#666666"
     pagecolor="#ffffff"
     id="base"
     inkscape:snap-nodes="false"
     inkscape:snap-global="false" />
  <defs
     id="defs4">
    <linearGradient
       inkscape:collect="always"
       id="linearGradient5538">
      <stop
         style="stop-color:#f4df88;stop-opacity:1"
         offset="0"
         id="stop5534" />
      <stop
         style="stop-color:#f4df88;stop-opacity:1"
         offset="1"
         id="stop5536" />
    </linearGradient>
    <inkscape:perspective
       sodipodi:type="inkscape:persp3d"
       inkscape:vp_x="0 : 526.1811 : 1"
       inkscape:vp_y="0 : 1000 : 0"
       inkscape:vp_z="744.09449 : 526.1811 : 1"
       inkscape:persp3d-origin="372.04724 : 350.7874 : 1"
       id="perspective5194" />
    <linearGradient
       inkscape:collect="always"
       xlink:href="#linearGradient5538"
       id="linearGradient5540"
       x1="77.036781"
       y1="507.59784"
       x2="76.834099"
       y2="360.46304"
       gradientUnits="userSpaceOnUse" />
  </defs>
  <metadata
     id="metadata7">
    <rdf:RDF>
      <cc:Work
         rdf:about="">
        <dc:format>image/svg+xml</dc:format>
        <dc:type
           rdf:resource="http://purl.org/dc/dcmitype/StillImage" />
        <dc:title></dc:title>
      </cc:Work>
    </rdf:RDF>
  </metadata>
  <g
     id="layer1"
     inkscape:groupmode="layer"
     inkscape:label="Layer 1">
    <path
       style="opacity:1;fill:#ff594c;fill-opacity:1;stroke:none;stroke-width:5.66889954;stroke-linecap:round;stroke-linejoin:round;stroke-miterlimit:4;stroke-dasharray:none;stroke-dashoffset:0;stroke-opacity:1"
       d="M 396.73884,612.30876 V 433.23494 a 73.567766,74.005736 0 0 1 0.19571,-5.19359 73.567766,74.005736 0 0 1 0.9018,-7.34169 73.567766,74.005736 0 0 1 1.625,-7.21339 73.567766,74.005736 0 0 1 2.33392,-7.01501 73.567766,74.005736 0 0 1 3.01882,-6.74695 73.567766,74.005736 0 0 1 3.67257,-6.40881 73.567766,74.005736 0 0 1 4.28936,-6.00798 73.567766,74.005736 0 0 1 4.86503,-5.54734 73.567766,74.005736 0 0 1 5.39252,-5.03092 73.567766,74.005736 0 0 1 5.86327,-4.46326 73.567766,74.005736 0 0 1 6.27737,-3.85407 73.567766,74.005736 0 0 1 6.62752,-3.20229 73.567766,74.005736 0 0 1 6.91409,-2.52193 73.567766,74.005736 0 0 1 7.1295,-1.81585 73.567766,74.005736 0 0 1 7.27263,-1.08974 73.567766,74.005736 0 0 1 7.18914,-0.34661 73.567766,74.005736 0 0 1 7.18906,0.34661 73.567766,74.005736 0 0 1 7.27137,1.08974 73.567766,74.005736 0 0 1 7.1295,1.81585 73.567766,74.005736 0 0 1 6.91543,2.52193 73.567766,74.005736 0 0 1 6.6261,3.20229 73.567766,74.005736 0 0 1 6.27737,3.85407 73.567766,74.005736 0 0 1 5.86327,4.46326 73.567766,74.005736 0 0 1 5.39252,5.03092 73.567766,74.005736 0 0 1 4.86645,5.54734 73.567766,74.005736 0 0 1 4.28928,6.00798 73.567766,74.005736 0 0 1 3.67257,6.40881 73.567766,74.005736 0 0 1 3.01889,6.74695 73.567766,74.005736 0 0 1 2.33392,7.01501 73.567766,74.005736 0 0 1 1.62492,7.21339 73.567766,74.005736 0 0 1 0.90047,7.34169 73.567766,74.005736 0 0 1 0.19571,5.19359 v -73.80649 0 252.88031 z"
       id="rect5201"
       inkscape:connector-curvature="0" />
    <path
       inkscape:connector-curvature="0"
       id="path5226"
       d="M 593.47483,612.30876 V 433.23494 a 73.567766,74.005736 0 0 1 0.19571,-5.19359 73.567766,74.005736 0 0 1 0.9018,-7.34169 73.567766,74.005736 0 0 1 1.625,-7.21339 73.567766,74.005736 0 0 1 2.33391,-7.01501 73.567766,74.005736 0 0 1 3.01882,-6.74695 73.567766,74.005736 0 0 1 3.67257,-6.40881 73.567766,74.005736 0 0 1 4.28936,-6.00798 73.567766,74.005736 0 0 1 4.86503,-5.54734 73.567766,74.005736 0 0 1 5.39252,-5.03092 73.567766,74.005736 0 0 1 5.86328,-4.46326 73.567766,74.005736 0 0 1 6.27737,-3.85407 73.567766,74.005736 0 0 1 6.62751,-3.20229 73.567766,74.005736 0 0 1 6.91409,-2.52193 73.567766,74.005736 0 0 1 7.1295,-1.81585 73.567766,74.005736 0 0 1 7.27263,-1.08974 73.567766,74.005736 0 0 1 7.18914,-0.34661 73.567766,74.005736 0 0 1 7.18906,0.34661 73.567766,74.005736 0 0 1 7.27138,1.08974 73.567766,74.005736 0 0 1 7.12949,1.81585 73.567766,74.005736 0 0 1 6.91543,2.52193 73.567766,74.005736 0 0 1 6.6261,3.20229 73.567766,74.005736 0 0 1 6.27737,3.85407 73.567766,74.005736 0 0 1 5.86328,4.46326 73.567766,74.005736 0 0 1 5.39252,5.03092 73.567766,74.005736 0 0 1 4.86644,5.54734 73.567766,74.005736 0 0 1 4.28928,6.00798 73.567766,74.005736 0 0 1 3.67257,6.40881 73.567766,74.005736 0 0 1 3.0189,6.74695 73.567766,74.005736 0 0 1 2.33391,7.01501 73.567766,74.005736 0 0 1 1.62492,7.21339 73.567766,74.005736 0 0 1 0.90047,7.34169 73.567766,74.005736 0 0 1 0.19571,5.19359 v -73.80649 0 252.88031 z"
       style="opacity:1;fill:#ff594c;fill-opacity:1;stroke:none;stroke-width:5.66889954;stroke-linecap:round;stroke-linejoin:round;stroke-miterlimit:4;stroke-dasharray:none;stroke-dashoffset:0;stroke-opacity:1" />
    <path
       style="opacity:1;fill:#ff594c;fill-opacity:1;stroke:none;stroke-width:5.64686537;stroke-linecap:round;stroke-linejoin:round;stroke-miterlimit:4;stroke-dasharray:none;stroke-dashoffset:0;stroke-opacity:1"
       d="m 347.13791,361.39049 v 177.68448 a 73.567766,73.431541 0 0 1 -0.19571,5.15325 73.567766,73.431541 0 0 1 -0.9018,7.28472 73.567766,73.431541 0 0 1 -1.625,7.15744 73.567766,73.431541 0 0 1 -2.33391,6.96054 73.567766,73.431541 0 0 1 -3.01882,6.69461 73.567766,73.431541 0 0 1 -3.67257,6.35914 73.567766,73.431541 0 0 1 -4.28936,5.96128 73.567766,73.431541 0 0 1 -4.86503,5.50435 73.567766,73.431541 0 0 1 -5.39252,4.99192 73.567766,73.431541 0 0 1 -5.86328,4.42857 73.567766,73.431541 0 0 1 -6.27737,3.82417 73.567766,73.431541 0 0 1 -6.62751,3.17749 73.567766,73.431541 0 0 1 -6.9141,2.50232 73.567766,73.431541 0 0 1 -7.12949,1.8018 73.567766,73.431541 0 0 1 -7.27264,1.08126 73.567766,73.431541 0 0 1 -7.18913,0.34395 73.567766,73.431541 0 0 1 -7.18906,-0.34395 73.567766,73.431541 0 0 1 -7.27138,-1.08126 73.567766,73.431541 0 0 1 -7.1295,-1.8018 73.567766,73.431541 0 0 1 -6.91542,-2.50232 73.567766,73.431541 0 0 1 -6.6261,-3.17749 73.567766,73.431541 0 0 1 -6.27737,-3.82417 73.567766,73.431541 0 0 1 -5.86328,-4.42857 73.567766,73.431541 0 0 1 -5.39252,-4.99192 73.567766,73.431541 0 0 1 -4.86644,-5.50435 73.567766,73.431541 0 0 1 -4.28928,-5.96128 73.567766,73.431541 0 0 1 -3.67257,-6.35914 73.567766,73.431541 0 0 1 -3.0189,-6.69461 73.567766,73.431541 0 0 1 -2.33392,-6.96054 73.567766,73.431541 0 0 1 -1.62492,-7.15744 73.567766,73.431541 0 0 1 -0.90046,-7.28472 73.567766,73.431541 0 0 1 -0.19571,-5.15325 v 73.23379 0 -250.91827 z"
       id="path5228"
       inkscape:connector-curvature="0" />
    <path
       d="m 150.4018,538.67772 a 73.567535,72.589828 0 0 1 -36.71698,62.94062 73.567535,72.589828 0 0 1 -73.600867,0.057 73.567535,72.589828 0 0 1 -36.8171302,-62.88364 l 73.5675352,10e-6 z"
       sodipodi:end="3.1415927"
       sodipodi:start="6.2816145"
       sodipodi:ry="72.589828"
       sodipodi:rx="73.567535"
       sodipodi:cy="538.79175"
       sodipodi:cx="76.834358"
       sodipodi:type="arc"
       id="path5232"
       style="opacity:1;fill:#ff594c;fill-opacity:1;stroke:none;stroke-width:6.15385675;stroke-linecap:round;stroke-linejoin:round;stroke-miterlimit:4;stroke-dasharray:none;stroke-dashoffset:0;stroke-opacity:1" />
    <path
       sodipodi:open="true"
       d="M 150.40141,433.91502 A 73.567406,73.567535 0 0 1 76.990746,507.59795 73.567406,73.567535 0 0 1 3.2669589,434.22831 73.567406,73.567535 0 0 1 76.595277,360.46343 73.567406,73.567535 0 0 1 150.40097,433.75067"
       sodipodi:end="6.2793805"
       sodipodi:start="6.2816145"
       sodipodi:ry="73.567535"
       sodipodi:rx="73.567406"
       sodipodi:cy="434.03058"
       sodipodi:cx="76.834099"
       sodipodi:type="arc"
       id="path5236"
       style="opacity:1;fill:url(#linearGradient5540);fill-opacity:1;stroke:none;stroke-width:6.19515562;stroke-linecap:round;stroke-linejoin:round;stroke-miterlimit:4;stroke-dasharray:none;stroke-dashoffset:0;stroke-opacity:1" />
    <path
       inkscape:connector-curvature="0"
       style="opacity:1;fill:#dfbc4d;fill-opacity:1;stroke:none;stroke-width:4.9127326;stroke-linecap:round;stroke-linejoin:round;stroke-miterlimit:4;stroke-dasharray:none;stroke-dashoffset:0;stroke-opacity:1"
       d="m 24.57216,382.32763 a 73.567402,73.567534 0 0 0 -10.03485,12.73616 c 0.965228,0.52651 2.073153,0.8252 3.254181,0.8252 h 8.244041 c 1.841353,0 3.323697,1.48235 3.323697,3.3237 0,1.84144 -1.482344,3.32371 -3.323697,3.32371 H 43.18572 c -1.841354,0 -3.323698,-1.48227 -3.323698,-3.32371 0,-1.84135 1.482344,-3.3237 3.323698,-3.3237 h 13.429458 c 3.756662,0 6.782141,-3.02394 6.782141,-6.78068 0,-3.75667 -3.025479,-6.78068 -6.782141,-6.78068 z m -14.122843,20.21024 a 73.567402,73.567534 0 0 0 -5.8306043,17.57559 c 0.1325608,0.008 0.2628835,0.0201 0.3969698,0.0201 H 28.955151 c -0.08867,0 -0.175091,0.009 -0.262365,0.0124 2.556429,0.13614 4.575738,2.23235 4.575738,4.82386 0,2.59159 -2.019309,4.68919 -4.575738,4.82533 0.08727,0.008 0.173697,0.0124 0.262365,0.0124 h 0.232473 c -3.425144,0 -6.182295,2.75716 -6.182295,6.18231 0,3.42515 2.757151,6.1837 6.182295,6.1837 h 5.123079 c -0.01858,0 -0.03794,0 -0.05653,0 v 0 c 1.767167,0.0457 3.17757,1.47987 3.17757,3.2585 0,1.77863 -1.410403,3.21265 -3.17757,3.2585 0.02788,6.2e-4 0.05498,0.008 0.08511,0.008 H 19.741337 c -2.759165,0 -4.979832,2.22066 -4.979832,4.97983 0,2.75917 2.220667,4.98129 4.979832,4.98129 h 37.096634 c 2.759088,0 4.979894,-2.22212 4.979894,-4.98129 0,-2.75917 -2.220806,-4.97983 -4.979894,-4.97983 h -2.576407 c 0.05808,0 0.1143,-0.008 0.171528,-0.009 -1.726666,-0.0894 -3.091148,-1.50457 -3.091148,-3.25424 0,-1.74966 1.364482,-3.16627 3.091148,-3.25563 -0.04801,0 -0.0951,-0.008 -0.143263,-0.008 h 36.723687 c 3.42522,0 6.182294,-2.75855 6.182294,-6.1837 0,-3.42522 -2.757074,-6.1823 -6.182294,-6.1823 H 48.652088 c -2.680254,0 -4.838025,-2.15801 -4.838025,-4.83811 0,-2.68011 2.157771,-4.83664 4.838025,-4.83664 h 7.620111 c 4.873957,0 8.797036,-3.92456 8.797036,-8.79845 0,-4.87396 -3.923079,-8.79705 -8.797036,-8.79705 z"
       id="path5238" />
    <path
       inkscape:connector-curvature="0"
       style="opacity:1;fill:#dfbc4d;fill-opacity:1;stroke:none;stroke-width:6.19515562;stroke-linecap:round;stroke-linejoin:round;stroke-miterlimit:4;stroke-dasharray:none;stroke-dashoffset:0;stroke-opacity:1"
       d="m 87.718083,377.39318 c -4.250879,0 -7.672538,3.42159 -7.672538,7.67255 0,4.25097 3.421659,7.67256 7.672538,7.67256 h 9.026721 c -0.08247,0 -0.162933,0.008 -0.243934,0.0124 1.70808,0.12452 3.047239,1.53748 3.047239,3.27832 0,1.74084 -1.339159,3.15527 -3.047239,3.2798 0.081,0.008 0.161461,0.0116 0.243934,0.0116 h -9.022462 c -2.767296,0 -4.995459,2.22817 -4.995459,4.99547 0,2.7673 2.228163,4.99547 4.995459,4.99547 h 38.035278 c 2.7673,0 4.99406,-2.22817 4.99406,-4.99547 -7e-5,-2.7673 -2.22676,-4.99547 -4.99406,-4.99547 H 111.9992 c -1.82323,0 -3.2911,-1.46786 -3.2911,-3.2911 0,-1.82324 1.46787,-3.2911 3.2911,-3.2911 h -0.62107 c 4.25088,0 7.67254,-3.42167 7.67254,-7.67255 0,-4.25097 -3.42166,-7.67263 -7.67254,-7.67263 z"
       id="path5240" />
    <path
       inkscape:connector-curvature="0"
       style="opacity:1;fill:#dfbc4d;fill-opacity:1;stroke:none;stroke-width:3.52725267;stroke-linecap:round;stroke-linejoin:round;stroke-miterlimit:4;stroke-dasharray:none;stroke-dashoffset:0;stroke-opacity:1"
       d="m 31.978152,477.13814 c -4.145253,0 -7.482502,3.33725 -7.482502,7.48259 0,0.40021 0.04104,0.78973 0.100593,1.17259 a 73.567402,73.567534 0 0 0 7.201862,6.30001 c 0.0604,0 0.119257,0.009 0.180047,0.009 h 12.313634 c -0.105395,0 -0.207692,0.008 -0.310609,0.017 1.752763,0.1565 3.118096,1.61825 3.118096,3.41307 0,1.79481 -1.365333,3.25648 -3.118096,3.41299 0.10284,0.009 0.205214,0.0155 0.310609,0.0155 h 13.094766 c 0.118172,0 0.235183,-0.008 0.350258,-0.017 -1.733635,-0.17501 -3.07837,-1.63041 -3.078447,-3.4116 0,-1.78118 1.344812,-3.23658 3.078447,-3.41159 -0.115075,-0.0116 -0.232086,-0.0186 -0.350258,-0.0186 h 3.897988 c 4.145252,0 7.481108,-3.33594 7.481108,-7.4812 0,-4.14526 -3.335856,-7.48251 -7.481108,-7.48251 z m 10.336917,21.82377 a 73.567402,73.567534 0 0 0 23.017692,7.64142 c 0.773619,-0.81048 1.250646,-1.90679 1.250646,-3.12097 0,-2.50439 -2.016057,-4.52045 -4.520446,-4.52045 z"
       id="path5242" />
    <path
       inkscape:connector-curvature="0"
       style="opacity:1;fill:#dfbc4d;fill-opacity:1;stroke:none;stroke-width:5.80795813;stroke-linecap:round;stroke-linejoin:round;stroke-miterlimit:4;stroke-dasharray:none;stroke-dashoffset:0;stroke-opacity:1"
       d="m 125.96461,427.1054 c -4.12256,0 -7.44138,3.3189 -7.44138,7.44147 0,4.12257 3.31882,7.44147 7.44138,7.44147 h 23.97198 a 73.567402,73.567534 0 0 0 0.46518,-8.07392 v -0.16448 a 73.567402,73.567534 0 0 0 -0.38433,-6.64454 z"
       id="path5245" />
    <path
       inkscape:connector-curvature="0"
       style="opacity:1;fill:#dfbc4d;fill-opacity:1;stroke:none;stroke-width:6.19515562;stroke-linecap:round;stroke-linejoin:round;stroke-miterlimit:4;stroke-dasharray:none;stroke-dashoffset:0;stroke-opacity:1"
       d="m 103.72681,454.18421 c -5.029218,0 -9.077748,4.04854 -9.077748,9.07777 0,5.02924 4.04853,9.07777 9.077748,9.07777 h -1.53995 c -0.0194,0 -0.0387,0 -0.0581,0.008 2.63657,0.0317 4.7516,2.16102 4.7516,4.80543 0,2.6444 -2.11503,4.77507 -4.7516,4.8069 0.0194,2.3e-4 0.0387,0 0.0581,0 H 86.968005 c -2.708132,0 -4.887741,2.17969 -4.887741,4.88767 0,2.70806 2.179609,4.88775 4.887741,4.88775 h 29.329005 c 2.70805,0 4.88766,-2.17969 4.88766,-4.88775 0,-2.70798 -2.17961,-4.88767 -4.88766,-4.88767 h -0.5204 c 0.31433,0 0.62161,-0.0325 0.91882,-0.0894 -2.2215,-0.42677 -3.88947,-2.37066 -3.88947,-4.72033 0,-2.34975 1.66797,-4.29363 3.88947,-4.7204 -0.29721,-0.0573 -0.60449,-0.0894 -0.91882,-0.0894 h 6.1071 c 5.0293,0 9.07776,-4.04853 9.07776,-9.07777 0,-5.02923 -4.04846,-9.07777 -9.07776,-9.07777 z"
       id="path5247" />
    <path
       d="m -360.46313,76.718539 a 73.567535,73.567406 0 0 1 -36.71698,63.788251 73.567535,73.567406 0 0 1 -73.60087,0.0578 73.567535,73.567406 0 0 1 -36.81713,-63.730495"
       sodipodi:end="3.1415927"
       sodipodi:start="6.2816145"
       sodipodi:ry="73.567406"
       sodipodi:rx="73.567535"
       sodipodi:cy="76.834099"
       sodipodi:cx="-434.03058"
       sodipodi:type="arc"
       id="path5249"
       style="opacity:0.075;fill:#000000;fill-opacity:1;stroke:none;stroke-width:6.19515562;stroke-linecap:round;stroke-linejoin:round;stroke-miterlimit:4;stroke-dasharray:none;stroke-dashoffset:0;stroke-opacity:1"
       sodipodi:open="true"
       transform="rotate(-90)" />
  </g>
</svg>
